<?xml version="1.0" encoding="UTF-8"?>
<svg id="Layer_2" data-name="Layer 2" xmlns="http://www.w3.org/2000/svg" xmlns:xlink="http://www.w3.org/1999/xlink" viewBox="0 0 43.55 43.55">
  <defs>
    <linearGradient id="linear-gradient" x1="21.78" y1="43.55" x2="21.78" y2="0" gradientUnits="userSpaceOnUse">
      <stop offset="0" stop-color="#002d89"/>
      <stop offset="1" stop-color="#223cf7"/>
    </linearGradient>
  </defs>
  <g id="Layer_1-2" data-name="Layer 1">
    <rect fill="url(#linear-gradient)" width="43.55" height="43.55" rx="7.52" ry="7.52"/>
    <g>
      <g>
        <path fill="#ffffff" d="m11.36,20.06c-.76,0-1.47-.14-2.13-.4-.66-.27-1.24-.65-1.73-1.13s-.88-1.05-1.15-1.71c-.27-.65-.41-1.36-.41-2.13s.14-1.48.4-2.13.65-1.22,1.14-1.7c.49-.48,1.07-.86,1.73-1.12s1.38-.4,2.15-.4,1.49.13,2.15.4,1.24.64,1.73,1.12c.49.48.88,1.04,1.15,1.69.27.65.41,1.36.41,2.13s-.14,1.47-.42,2.13c-.28.66-.66,1.23-1.16,1.71s-1.07.86-1.72,1.13c-.66.27-1.37.4-2.14.4Zm0-1.73c.51,0,.98-.09,1.41-.27.43-.18.8-.43,1.12-.76.32-.33.57-.71.74-1.16.17-.45.26-.93.26-1.45s-.09-1-.26-1.44c-.17-.44-.42-.83-.74-1.16-.32-.33-.7-.58-1.12-.76s-.9-.27-1.41-.27-.97.09-1.4.27-.8.43-1.12.76c-.32.33-.57.72-.75,1.16-.18.44-.27.92-.27,1.44s.09,1,.27,1.45.42.83.75,1.16c.32.33.69.58,1.12.76.43.18.89.27,1.4.27Zm2.4,2.82l-3.23-5.41h1.98l3.28,5.41h-2.02Z"/>
        <path fill="#ffffff" d="m18.33,19.9v-7.58h1.71v1.69l-.14-.25c.18-.57.45-.96.83-1.18.38-.22.83-.33,1.36-.33h.45v1.62h-.65c-.52,0-.94.16-1.25.48-.32.32-.48.77-.48,1.35v4.22h-1.83Z"/>
      </g>
      <g>
        <path fill="#ffffff" d="m5.94,34.05v-10.39h6.93v1.67h-5.03v2.87h4.4v1.67h-4.4v4.17h-1.9Z"/>
        <path fill="#ffffff" d="m17.5,34.21c-.74,0-1.42-.17-2.03-.52-.61-.34-1.09-.81-1.45-1.41-.36-.59-.54-1.27-.54-2.04s.18-1.44.54-2.03c.36-.59.84-1.06,1.44-1.41s1.28-.52,2.03-.52,1.42.17,2.02.52,1.09.81,1.44,1.4c.36.59.54,1.27.54,2.04s-.18,1.44-.54,2.04-.85,1.06-1.45,1.41c-.61.35-1.27.52-2.01.52Zm0-1.67c.41,0,.77-.1,1.08-.29.31-.2.56-.47.74-.82.18-.35.27-.74.27-1.18s-.09-.84-.27-1.18c-.18-.34-.43-.61-.74-.81-.31-.2-.67-.3-1.08-.3s-.78.1-1.1.3c-.32.2-.57.47-.75.81-.18.34-.27.73-.27,1.18s.09.83.27,1.18c.18.35.43.62.75.82.32.2.68.29,1.1.29Z"/>
        <path fill="#ffffff" d="m22.88,34.05v-10.55h1.83v10.55h-1.83Z"/>
        <path fill="#ffffff" d="m26.39,25.61v-1.95h1.83v1.95h-1.83Zm0,8.43v-7.58h1.83v7.58h-1.83Z"/>
        <path fill="#ffffff" d="m33.61,34.21c-.74,0-1.42-.17-2.03-.52-.61-.34-1.09-.81-1.45-1.41-.36-.59-.54-1.27-.54-2.04s.18-1.44.54-2.03c.36-.59.84-1.06,1.44-1.41s1.28-.52,2.03-.52,1.42.17,2.02.52,1.09.81,1.44,1.4c.36.59.54,1.27.54,2.04s-.18,1.44-.54,2.04-.85,1.06-1.45,1.41c-.61.35-1.27.52-2.01.52Zm0-1.67c.41,0,.77-.1,1.08-.29.31-.2.56-.47.74-.82.18-.35.27-.74.27-1.18s-.09-.84-.27-1.18c-.18-.34-.43-.61-.74-.81-.31-.2-.67-.3-1.08-.3s-.78.1-1.1.3c-.32.2-.57.47-.75.81-.18.34-.27.73-.27,1.18s.09.83.27,1.18c.18.35.43.62.75.82.32.2.68.29,1.1.29Z"/>
      </g>
    </g>
  </g>
</svg>
